<svg width="54" height="54" viewBox="0 0 54 54" fill="none" xmlns="http://www.w3.org/2000/svg">
<path d="M37.75 5.5H16.25C10.3129 5.5 5.5 10.3129 5.5 16.25V37.75C5.5 43.6871 10.3129 48.5 16.25 48.5H37.75C43.6871 48.5 48.5 43.6871 48.5 37.75V16.25C48.5 10.3129 43.6871 5.5 37.75 5.5Z" stroke="white" stroke-width="3" stroke-linecap="round" stroke-linejoin="round"/>
<path d="M35.6002 25.6455C35.8655 27.4349 35.5599 29.2623 34.7267 30.8679C33.8936 32.4735 32.5754 33.7756 30.9596 34.5888C29.3439 35.4021 27.5128 35.6852 25.7269 35.3978C23.941 35.1104 22.2911 34.2672 21.0121 32.9881C19.733 31.7091 18.8898 30.0592 18.6024 28.2733C18.315 26.4874 18.5981 24.6563 19.4114 23.0405C20.2246 21.4248 21.5267 20.1066 23.1323 19.2735C24.7379 18.4403 26.5653 18.1347 28.3547 18.4C30.1798 18.6707 31.8696 19.5212 33.1743 20.8259C34.479 22.1306 35.3295 23.8204 35.6002 25.6455Z" stroke="white" stroke-width="3" stroke-linecap="round" stroke-linejoin="round"/>
<path d="M38.8252 15.175H38.8462" stroke="white" stroke-width="3" stroke-linecap="round" stroke-linejoin="round"/>
</svg>
