<svg width="54" height="54" viewBox="0 0 54 54" fill="none" xmlns="http://www.w3.org/2000/svg">
<path d="M42.8623 11.0475C38.6548 6.8175 33.0523 4.5 27.0898 4.5C14.8048 4.5 4.79231 14.5125 4.79231 26.7975C4.79231 30.735 5.8273 34.56 7.7623 37.935L4.6123 49.5L16.4248 46.395C19.6873 48.1725 23.3548 49.1175 27.0898 49.1175C39.3748 49.1175 49.3873 39.105 49.3873 26.82C49.3873 20.8575 47.0698 15.255 42.8623 11.0475ZM27.0898 45.3375C23.7598 45.3375 20.4973 44.4375 17.6398 42.75L16.9648 42.345L9.94481 44.19L11.8123 37.35L11.3623 36.6525C9.51731 33.705 8.5273 30.285 8.5273 26.7975C8.5273 16.5825 16.8523 8.2575 27.0673 8.2575C32.0173 8.2575 36.6748 10.1925 40.1623 13.7025C43.6723 17.2125 45.5848 21.87 45.5848 26.82C45.6298 37.035 37.3048 45.3375 27.0898 45.3375ZM37.2598 31.4775C36.6973 31.2075 33.9523 29.8575 33.4573 29.655C32.9398 29.475 32.5798 29.385 32.1973 29.925C31.8148 30.4875 30.7573 31.7475 30.4423 32.1075C30.1273 32.49 29.7898 32.535 29.2273 32.2425C28.6648 31.9725 26.8648 31.365 24.7498 29.475C23.0848 27.99 21.9823 26.1675 21.6448 25.605C21.3298 25.0425 21.5998 24.75 21.8923 24.4575C22.1398 24.21 22.4548 23.805 22.7248 23.49C22.9948 23.175 23.1073 22.9275 23.2873 22.5675C23.4673 22.185 23.3773 21.87 23.2423 21.6C23.1073 21.33 21.9823 18.585 21.5323 17.46C21.0823 16.38 20.6098 16.515 20.2723 16.4925C19.9348 16.4925 19.5748 16.4925 19.1923 16.4925C18.8098 16.4925 18.2248 16.6275 17.7073 17.19C17.2123 17.7525 15.7723 19.1025 15.7723 21.8475C15.7723 24.5925 17.7748 27.2475 18.0448 27.6075C18.3148 27.99 21.9823 33.615 27.5623 36.0225C28.8898 36.6075 29.9248 36.945 30.7348 37.1925C32.0623 37.62 33.2773 37.5525 34.2448 37.4175C35.3248 37.26 37.5523 36.0675 38.0023 34.7625C38.4748 33.4575 38.4748 32.355 38.3173 32.1075C38.1598 31.86 37.8223 31.7475 37.2598 31.4775Z" fill="white"/>
</svg>
