<svg width="12" height="6" viewBox="0 0 12 6" fill="none" xmlns="http://www.w3.org/2000/svg">
<path d="M11.1901 0.2025C11.0847 0.0971618 10.9417 0.0379944 10.7926 0.0379944C10.6436 0.0379944 10.5006 0.0971618 10.3951 0.2025L6.00015 4.605L1.60515 0.2025C1.49852 0.10314 1.35748 0.0490467 1.21176 0.0516179C1.06603 0.054189 0.926992 0.113223 0.823932 0.216283C0.720872 0.319342 0.661838 0.458381 0.659267 0.604107C0.656696 0.749833 0.710788 0.890868 0.810148 0.997499L5.60265 5.7975C5.70812 5.90284 5.85109 5.962 6.00015 5.962C6.14921 5.962 6.29218 5.90284 6.39765 5.7975L11.1901 0.997499C11.2955 0.89203 11.3547 0.749062 11.3547 0.599999C11.3547 0.450936 11.2955 0.307969 11.1901 0.2025Z" fill="#737373"/>
</svg>
